<svg viewBox="9.2032 6.074 484.334 487.5475" width="16" height="16" xmlns="http://www.w3.org/2000/svg">
  <path d="M 332.016 33.802 L 236.096 130.566 L 227.213 121.614 C 215.4 109.709 196.217 109.709 184.403 121.614 C 172.592 133.518 172.592 152.853 184.403 164.759 L 335.606 317.144 C 347.42 329.05 366.603 329.05 378.416 317.144 C 390.228 305.239 390.228 285.905 378.416 274 L 369.533 265.047 L 465.451 168.282 C 502.307 131.138 502.307 70.946 465.451 33.896 C 428.596 -3.152 368.871 -3.248 332.11 33.896 L 332.016 33.802 Z M 61.552 313.906 C 47.377 328.192 39.439 347.621 39.439 367.813 L 39.439 408.195 L 14.302 446.196 C 6.269 458.292 7.875 474.388 18.081 484.673 C 28.287 494.96 44.258 496.579 56.259 488.483 L 93.966 463.149 L 134.034 463.149 C 154.068 463.149 173.348 455.149 187.523 440.862 L 322.052 297.202 L 286.363 259.615 L 144.714 397.718 C 141.878 400.575 138.004 402.194 134.034 402.194 L 99.919 402.194 L 99.919 367.813 C 99.919 363.813 101.527 359.907 104.361 357.051 L 247.789 223.576 L 201.421 182.284 L 61.552 313.906 Z" style="fill: rgb(63, 0, 255);"/>
  <path d="M 332.461 33.802 L 236.541 130.566 L 227.657 121.614 C 215.845 109.709 196.661 109.709 184.848 121.614 C 173.036 133.518 173.036 152.853 184.848 164.759 L 336.051 317.144 C 347.864 329.05 367.048 329.05 378.859 317.144 C 390.673 305.239 390.673 285.905 378.859 274 L 369.977 265.047 L 465.896 168.282 C 502.751 131.138 502.751 70.946 465.896 33.896 C 429.04 -3.152 369.315 -3.248 332.553 33.896 L 332.461 33.802 Z" style=""/>
  <path d="M 244.615 224.502 L 284.139 266.096 L 144.48 398.645 C 141.575 401.502 137.605 403.121 133.539 403.121 L 98.585 403.121 L 98.585 368.739 C 98.585 364.739 100.232 360.833 103.137 357.976 L 244.615 224.502 Z" style="fill: rgb(255, 120, 0);"/>
</svg>